<svg viewBox="0 0 70 40" xmlns="http://www.w3.org/2000/svg" width="70" height="40"><image x="0" y="0" width="10" height="10" href="svg/free.svg" /><image x="10" y="0" width="10" height="10" href="svg/free.svg" /><image x="20" y="0" width="10" height="10" href="svg/free.svg" /><image x="30" y="0" width="10" height="10" href="svg/player.svg" /><image x="40" y="0" width="10" height="10" href="svg/free.svg" /><image x="50" y="0" width="10" height="10" href="svg/free.svg" /><image x="60" y="0" width="10" height="10" href="svg/free.svg" /><image x="0" y="10" width="10" height="10" href="svg/free.svg" /><image x="10" y="10" width="10" height="10" href="svg/free.svg" /><image x="20" y="10" width="10" height="10" href="svg/wall.svg" /><image x="30" y="10" width="10" height="10" href="svg/wall.svg" /><image x="40" y="10" width="10" height="10" href="svg/free.svg" /><image x="50" y="10" width="10" height="10" href="svg/free.svg" /><image x="60" y="10" width="10" height="10" href="svg/free.svg" /><image x="0" y="20" width="10" height="10" href="svg/wall.svg" /><image x="10" y="20" width="10" height="10" href="svg/free.svg" /><image x="20" y="20" width="10" height="10" href="svg/free.svg" /><image x="30" y="20" width="10" height="10" href="svg/wall.svg" /><image x="40" y="20" width="10" height="10" href="svg/free.svg" /><image x="50" y="20" width="10" height="10" href="svg/free.svg" /><image x="60" y="20" width="10" height="10" href="svg/free.svg" /><image x="0" y="30" width="10" height="10" href="svg/wall.svg" /><image x="10" y="30" width="10" height="10" href="svg/wall.svg" /><image x="20" y="30" width="10" height="10" href="svg/free.svg" /><image x="30" y="30" width="10" height="10" href="svg/free.svg" /><image x="40" y="30" width="10" height="10" href="svg/free.svg" /><image x="50" y="30" width="10" height="10" href="svg/free.svg" /><image x="60" y="30" width="10" height="10" href="svg/free.svg" /></svg>