<svg viewBox="0 0 140 70" xmlns="http://www.w3.org/2000/svg" width="140" height="70"><image x="0" y="0" width="10" height="10" href="svg/wall.svg" /><image x="10" y="0" width="10" height="10" href="svg/wall.svg" /><image x="20" y="0" width="10" height="10" href="svg/wall.svg" /><image x="30" y="0" width="10" height="10" href="svg/wall.svg" /><image x="40" y="0" width="10" height="10" href="svg/wall.svg" /><image x="50" y="0" width="10" height="10" href="svg/wall.svg" /><image x="60" y="0" width="10" height="10" href="svg/wall.svg" /><image x="70" y="0" width="10" height="10" href="svg/wall.svg" /><image x="80" y="0" width="10" height="10" href="svg/wall.svg" /><image x="90" y="0" width="10" height="10" href="svg/wall.svg" /><image x="100" y="0" width="10" height="10" href="svg/wall.svg" /><image x="110" y="0" width="10" height="10" href="svg/wall.svg" /><image x="120" y="0" width="10" height="10" href="svg/wall.svg" /><image x="130" y="0" width="10" height="10" href="svg/wall.svg" /><image x="0" y="10" width="10" height="10" href="svg/wall.svg" /><image x="10" y="10" width="10" height="10" href="svg/free.svg" /><image x="20" y="10" width="10" height="10" href="svg/free.svg" /><image x="30" y="10" width="10" height="10" href="svg/free.svg" /><image x="40" y="10" width="10" height="10" href="svg/wall.svg" /><image x="50" y="10" width="10" height="10" href="svg/free.svg" /><image x="60" y="10" width="10" height="10" href="svg/free.svg" /><image x="70" y="10" width="10" height="10" href="svg/wall.svg" /><image x="80" y="10" width="10" height="10" href="svg/wall.svg" /><image x="90" y="10" width="10" height="10" href="svg/wall.svg" /><image x="100" y="10" width="10" height="10" href="svg/wall.svg" /><image x="110" y="10" width="10" height="10" href="svg/free.svg" /><image x="120" y="10" width="10" height="10" href="svg/free.svg" /><image x="130" y="10" width="10" height="10" href="svg/wall.svg" /><image x="0" y="20" width="10" height="10" href="svg/wall.svg" /><image x="10" y="20" width="10" height="10" href="svg/free.svg" /><image x="20" y="20" width="10" height="10" href="svg/wall.svg" /><image x="30" y="20" width="10" height="10" href="svg/wall.svg" /><image x="40" y="20" width="10" height="10" href="svg/wall.svg" /><image x="50" y="20" width="10" height="10" href="svg/wall.svg" /><image x="60" y="20" width="10" height="10" href="svg/free.svg" /><image x="70" y="20" width="10" height="10" href="svg/player.svg" /><image x="80" y="20" width="10" height="10" href="svg/wall.svg" /><image x="90" y="20" width="10" height="10" href="svg/wall.svg" /><image x="100" y="20" width="10" height="10" href="svg/free.svg" /><image x="110" y="20" width="10" height="10" href="svg/free.svg" /><image x="120" y="20" width="10" height="10" href="svg/wall.svg" /><image x="130" y="20" width="10" height="10" href="svg/free.svg" /><image x="0" y="30" width="10" height="10" href="svg/wall.svg" /><image x="10" y="30" width="10" height="10" href="svg/free.svg" /><image x="20" y="30" width="10" height="10" href="svg/free.svg" /><image x="30" y="30" width="10" height="10" href="svg/free.svg" /><image x="40" y="30" width="10" height="10" href="svg/wall.svg" /><image x="50" y="30" width="10" height="10" href="svg/free.svg" /><image x="60" y="30" width="10" height="10" href="svg/free.svg" /><image x="70" y="30" width="10" height="10" href="svg/wall.svg" /><image x="80" y="30" width="10" height="10" href="svg/wall.svg" /><image x="90" y="30" width="10" height="10" href="svg/free.svg" /><image x="100" y="30" width="10" height="10" href="svg/free.svg" /><image x="110" y="30" width="10" height="10" href="svg/wall.svg" /><image x="120" y="30" width="10" height="10" href="svg/free.svg" /><image x="130" y="30" width="10" height="10" href="svg/free.svg" /><image x="0" y="40" width="10" height="10" href="svg/wall.svg" /><image x="10" y="40" width="10" height="10" href="svg/wall.svg" /><image x="20" y="40" width="10" height="10" href="svg/wall.svg" /><image x="30" y="40" width="10" height="10" href="svg/free.svg" /><image x="40" y="40" width="10" height="10" href="svg/wall.svg" /><image x="50" y="40" width="10" height="10" href="svg/free.svg" /><image x="60" y="40" width="10" height="10" href="svg/wall.svg" /><image x="70" y="40" width="10" height="10" href="svg/wall.svg" /><image x="80" y="40" width="10" height="10" href="svg/free.svg" /><image x="90" y="40" width="10" height="10" href="svg/free.svg" /><image x="100" y="40" width="10" height="10" href="svg/wall.svg" /><image x="110" y="40" width="10" height="10" href="svg/free.svg" /><image x="120" y="40" width="10" height="10" href="svg/free.svg" /><image x="130" y="40" width="10" height="10" href="svg/free.svg" /><image x="0" y="50" width="10" height="10" href="svg/wall.svg" /><image x="10" y="50" width="10" height="10" href="svg/free.svg" /><image x="20" y="50" width="10" height="10" href="svg/free.svg" /><image x="30" y="50" width="10" height="10" href="svg/free.svg" /><image x="40" y="50" width="10" height="10" href="svg/free.svg" /><image x="50" y="50" width="10" height="10" href="svg/free.svg" /><image x="60" y="50" width="10" height="10" href="svg/free.svg" /><image x="70" y="50" width="10" height="10" href="svg/free.svg" /><image x="80" y="50" width="10" height="10" href="svg/free.svg" /><image x="90" y="50" width="10" height="10" href="svg/free.svg" /><image x="100" y="50" width="10" height="10" href="svg/wall.svg" /><image x="110" y="50" width="10" height="10" href="svg/free.svg" /><image x="120" y="50" width="10" height="10" href="svg/free.svg" /><image x="130" y="50" width="10" height="10" href="svg/free.svg" /><image x="0" y="60" width="10" height="10" href="svg/wall.svg" /><image x="10" y="60" width="10" height="10" href="svg/wall.svg" /><image x="20" y="60" width="10" height="10" href="svg/wall.svg" /><image x="30" y="60" width="10" height="10" href="svg/wall.svg" /><image x="40" y="60" width="10" height="10" href="svg/wall.svg" /><image x="50" y="60" width="10" height="10" href="svg/wall.svg" /><image x="60" y="60" width="10" height="10" href="svg/wall.svg" /><image x="70" y="60" width="10" height="10" href="svg/wall.svg" /><image x="80" y="60" width="10" height="10" href="svg/wall.svg" /><image x="90" y="60" width="10" height="10" href="svg/free.svg" /><image x="100" y="60" width="10" height="10" href="svg/free.svg" /><image x="110" y="60" width="10" height="10" href="svg/free.svg" /><image x="120" y="60" width="10" height="10" href="svg/free.svg" /><image x="130" y="60" width="10" height="10" href="svg/free.svg" /></svg>